<?xml version="1.0" encoding="utf-8"?>
<!-- Generator: Adobe Illustrator 23.0.1, SVG Export Plug-In . SVG Version: 6.00 Build 0)  -->
<svg version="1.1" id="レイヤー_1" xmlns="http://www.w3.org/2000/svg" xmlns:xlink="http://www.w3.org/1999/xlink" x="0px"
	 y="0px" width="520px" height="150px" viewBox="0 0 520 150" enable-background="new 0 0 520 150" xml:space="preserve">
<g>
	<path fill="#333333" d="M139.76,149.234c-18.561,0-33.661-15.1-33.661-33.661s15.1-33.661,33.661-33.661s33.661,15.1,33.661,33.661
		S158.321,149.234,139.76,149.234z M139.76,83.89c-17.471,0-31.684,14.213-31.684,31.684s14.213,31.684,31.684,31.684
		s31.684-14.213,31.684-31.684S157.231,83.89,139.76,83.89z"/>
	<path fill="#333333" d="M346.307,149.234c-18.561,0-33.661-15.1-33.661-33.661s15.1-33.661,33.661-33.661
		c18.561,0,33.661,15.1,33.661,33.661S364.868,149.234,346.307,149.234z M346.307,83.89c-17.471,0-31.684,14.213-31.684,31.684
		s14.213,31.684,31.684,31.684s31.684-14.213,31.684-31.684S363.778,83.89,346.307,83.89z"/>
	<path fill="#333333" d="M477.339,149.234c-18.561,0-33.661-15.1-33.661-33.661s15.1-33.661,33.661-33.661
		c18.561,0,33.661,15.1,33.661,33.661S495.9,149.234,477.339,149.234z M477.339,83.89c-17.471,0-31.684,14.213-31.684,31.684
		s14.213,31.684,31.684,31.684c17.471,0,31.684-14.213,31.684-31.684S494.81,83.89,477.339,83.89z"/>
	<polygon fill="#333333" points="277.009,148.246 275.032,148.246 275.032,106.794 309.952,106.794 309.952,108.771 
		277.009,108.771 	"/>
	<polygon fill="#333333" points="235.054,81.913 234.066,81.913 204.644,81.913 204.644,83.89 234.066,83.89 234.066,148.246 
		236.043,148.246 236.043,83.89 323.019,83.89 323.019,81.913 	"/>
	<rect x="431.773" y="82.901" fill="#333333" width="1.977" height="65.345"/>
	<polygon fill="#333333" points="254.029,2.193 254.029,26.582 189.848,26.582 189.848,28.558 254.029,28.558 254.029,67.538 
		256.006,67.538 256.006,2.193 	"/>
	<path fill="#333333" d="M95.246,81.913c-0.192,0-0.383,0.003-0.748,0.008c-1.61,0.023-6.51,0.095-29.667,0.193l0.009,1.977
		c23.167-0.098,28.074-0.169,29.687-0.193c0.351-0.005,0.535-0.008,0.719-0.008c13.175,0,23.893,10.718,23.893,23.893
		s-10.718,23.893-23.893,23.893c-0.184,0-0.368-0.003-0.719-0.008c-1.598-0.023-7.028-0.23-29.691-0.329v-0.003h-1.977v16.91h1.977
		v-14.794c23.153,0.098,28.053,0.169,29.663,0.193c0.364,0.005,0.555,0.008,0.748,0.008c14.265,0,25.87-11.605,25.87-25.87
		S109.51,81.913,95.246,81.913z"/>
	<path fill="#333333" d="M215.533,107.783c0-14.265-11.605-25.87-25.869-25.87c-0.192,0-0.383,0.003-0.748,0.008
		c-1.61,0.023-6.51,0.095-29.668,0.193l0.009,1.977c23.168-0.098,28.075-0.169,29.687-0.193c0.351-0.005,0.535-0.008,0.719-0.008
		c13.174,0,23.892,10.718,23.892,23.893s-10.718,23.893-23.892,23.893c-0.184,0-0.368-0.003-0.719-0.008
		c-1.612-0.024-6.52-0.095-29.687-0.193l-0.009,1.977c23.157,0.098,28.057,0.169,29.668,0.193c0.364,0.005,0.555,0.008,0.748,0.008
		c0.891,0,1.772-0.045,2.64-0.134l15.426,15.426l1.398-1.398l-14.397-14.396C206.578,130.788,215.533,120.313,215.533,107.783z"/>
	<path fill="#333333" d="M422.611,107.783c0-14.265-11.605-25.87-25.87-25.87c-0.192,0-0.383,0.003-0.747,0.008
		c-1.61,0.023-6.509,0.095-29.667,0.193l0.009,1.977c23.169-0.098,28.075-0.169,29.687-0.193c0.35-0.005,0.534-0.008,0.719-0.008
		c13.174,0,23.893,10.718,23.893,23.893s-10.718,23.893-23.893,23.893c-0.184,0-0.368-0.003-0.719-0.008
		c-1.612-0.024-6.519-0.095-29.687-0.193l-0.009,1.977c23.159,0.098,28.057,0.169,29.667,0.193c0.364,0.005,0.556,0.008,0.747,0.008
		c0.891,0,1.772-0.045,2.64-0.134l15.426,15.426l1.398-1.398l-14.396-14.396C413.655,130.788,422.611,120.313,422.611,107.783z"/>
	<polygon fill="#333333" points="185.98,68.534 128.53,1.51 130.031,0.223 184.004,63.191 184.004,0.867 185.98,0.867 	"/>
	<path fill="#333333" d="M457.098,26.411c0-14.265-11.605-25.87-25.87-25.87c-0.192,0-0.383,0.003-0.747,0.008
		c-1.609,0.023-6.506,0.095-29.664,0.192h-65.75l1.138,1.977h31.234v64.645h1.977V2.719h31.405
		c23.171-0.097,28.076-0.169,29.688-0.193c0.35-0.005,0.533-0.008,0.718-0.008c13.175,0,23.893,10.718,23.893,23.893
		s-10.718,23.892-23.893,23.892c-0.184,0-0.368-0.003-0.718-0.008c-1.612-0.024-6.517-0.095-29.688-0.193l-0.009,1.977
		c23.162,0.097,28.059,0.169,29.668,0.192c0.364,0.005,0.555,0.008,0.747,0.008c0.891,0,1.772-0.045,2.64-0.134l15.426,15.426
		l1.398-1.398l-14.397-14.397C448.142,49.417,457.098,38.941,457.098,26.411z"/>
	<polygon fill="#333333" points="336.824,2.302 335.589,0.758 303.045,26.792 270.501,0.758 269.267,2.302 302.057,28.534 
		302.057,68.515 304.034,68.515 304.034,28.534 	"/>
	<path fill="#333333" d="M94.661,68.321C76.1,68.321,61,53.221,61,34.661S76.1,1,94.661,1c7.113,0,13.919,2.199,19.682,6.361
		l-1.157,1.602c-5.424-3.916-11.829-5.986-18.524-5.986c-17.471,0-31.684,14.213-31.684,31.684S77.19,66.344,94.661,66.344
		s31.684-14.213,31.684-31.684c0-2.332-0.258-4.663-0.767-6.94h-23.489v-1.977h25.043l0.187,0.75
		c0.666,2.67,1.003,5.418,1.003,8.167C128.321,53.221,113.221,68.321,94.661,68.321z"/>
</g>
<rect x="0.004" y="1.253" fill="#333333" width="48.961" height="64.261"/>
</svg>
