<svg id="レイヤー_1" data-name="レイヤー 1" xmlns="http://www.w3.org/2000/svg" viewBox="0 0 520 150"><defs><style>.cls-1{fill:#333;}</style></defs><title>アートボード 1</title><path class="cls-1" d="M139.76,149.23a33.66,33.66,0,1,1,33.66-33.66A33.7,33.7,0,0,1,139.76,149.23Zm0-65.34a31.69,31.69,0,1,0,31.68,31.68A31.71,31.71,0,0,0,139.76,83.89Z"/><path class="cls-1" d="M346.31,149.23A33.66,33.66,0,1,1,380,115.57,33.7,33.7,0,0,1,346.31,149.23Zm0-65.34A31.69,31.69,0,1,0,378,115.57,31.72,31.72,0,0,0,346.31,83.89Z"/><path class="cls-1" d="M477.34,149.23A33.66,33.66,0,1,1,511,115.57,33.7,33.7,0,0,1,477.34,149.23Zm0-65.34A31.69,31.69,0,1,0,509,115.57,31.71,31.71,0,0,0,477.34,83.89Z"/><polygon class="cls-1" points="277.01 148.25 275.03 148.25 275.03 106.79 309.95 106.79 309.95 108.77 277.01 108.77 277.01 148.25"/><polygon class="cls-1" points="235.05 81.91 234.07 81.91 204.64 81.91 204.64 83.89 234.07 83.89 234.07 148.25 236.04 148.25 236.04 83.89 323.02 83.89 323.02 81.91 235.05 81.91"/><rect class="cls-1" x="431.77" y="82.9" width="1.98" height="65.34"/><polygon class="cls-1" points="254.03 2.19 254.03 26.58 189.85 26.58 189.85 28.56 254.03 28.56 254.03 67.54 256.01 67.54 256.01 2.19 254.03 2.19"/><path class="cls-1" d="M95.25,81.91H94.5c-1.61,0-6.51.1-29.67.19v2C88,84,92.91,83.92,94.53,83.9h.72a23.9,23.9,0,0,1,0,47.79h-.72c-1.6,0-7-.23-29.69-.33h-2v16.91h2v-14.8c23.15.1,28.05.17,29.66.19h.75a25.87,25.87,0,0,0,0-51.74Z"/><path class="cls-1" d="M215.53,107.78a25.9,25.9,0,0,0-25.87-25.87h-.74c-1.61,0-6.51.1-29.67.19v2c23.17-.1,28.07-.17,29.69-.19h.71a23.9,23.9,0,1,1,0,47.79H189c-1.62,0-6.52-.1-29.69-.2v2c23.16.1,28.06.17,29.67.19h.74a25.37,25.37,0,0,0,2.64-.13l15.43,15.42,1.4-1.39-14.4-14.4A25.91,25.91,0,0,0,215.53,107.78Z"/><path class="cls-1" d="M422.61,107.78a25.9,25.9,0,0,0-25.87-25.87H396c-1.61,0-6.5.1-29.66.19v2c23.16-.1,28.07-.17,29.68-.19h.72a23.9,23.9,0,0,1,0,47.79H396c-1.61,0-6.52-.1-29.68-.2v2c23.16.1,28.05.17,29.66.19h.75a25.64,25.64,0,0,0,2.64-.13l15.43,15.42,1.4-1.39-14.4-14.4A25.91,25.91,0,0,0,422.61,107.78Z"/><polygon class="cls-1" points="185.98 68.53 128.53 1.51 130.03 0.22 184 63.19 184 0.87 185.98 0.87 185.98 68.53"/><path class="cls-1" d="M457.1,26.41A25.91,25.91,0,0,0,431.23.54h-.75c-1.61,0-6.5.09-29.66.19H335.07l1.14,2h31.23V67.36h2V2.72h31.4c23.17-.1,28.08-.17,29.69-.19h.72a23.89,23.89,0,0,1,0,47.78h-.72c-1.61,0-6.52-.1-29.69-.2v2c23.17.1,28.06.17,29.67.19h.75a25.64,25.64,0,0,0,2.64-.13l15.42,15.42,1.4-1.39L436.3,51.78A25.92,25.92,0,0,0,457.1,26.41Z"/><polygon class="cls-1" points="336.82 2.3 335.59 0.76 303.05 26.79 270.5 0.76 269.27 2.3 302.06 28.53 302.06 68.52 304.03 68.52 304.03 28.53 336.82 2.3"/><path class="cls-1" d="M94.66,68.32a33.66,33.66,0,1,1,19.68-61L113.19,9a31.59,31.59,0,1,0,12.39,18.76H102.09v-2h25l.19.75a34.09,34.09,0,0,1,1,8.17A33.7,33.7,0,0,1,94.66,68.32Z"/><rect class="cls-1" y="1.25" width="48.96" height="64.26"/></svg>